SplineFontDB: 3.2
FontName: Meloni
FullName: Meloni Display
FamilyName: Meloni
Weight: Normal
Copyright: Copyright (c) 2021, Isaac Clayton
UComments: "2021-12-9: Created with FontForge (http://fontforge.org)"
Version: 001.000
ItalicAngle: 0
UnderlinePosition: -97.1429
UnderlineWidth: 48.5714
Ascent: 800
Descent: 220
InvalidEm: 0
LayerCount: 2
Layer: 0 0 "Back" 1
Layer: 1 0 "Fore" 0
XUID: [1021 537 -1298050255 12243483]
FSType: 0
OS2Version: 0
OS2_WeightWidthSlopeOnly: 0
OS2_UseTypoMetrics: 1
CreationTime: 1639056054
ModificationTime: 1639243836
PfmFamily: 17
TTFWeight: 400
TTFWidth: 5
LineGap: 87
VLineGap: 0
OS2TypoAscent: 0
OS2TypoAOffset: 1
OS2TypoDescent: 0
OS2TypoDOffset: 1
OS2TypoLinegap: 87
OS2WinAscent: 0
OS2WinAOffset: 1
OS2WinDescent: 0
OS2WinDOffset: 1
HheadAscent: 0
HheadAOffset: 1
HheadDescent: 0
HheadDOffset: 1
OS2Vendor: 'PfEd'
MarkAttachClasses: 1
DEI: 91125
LangName: 1033
Encoding: ISO8859-1
UnicodeInterp: none
NameList: AGL For New Fonts
DisplaySize: -48
AntiAlias: 1
FitToEm: 0
WinInfo: 32 16 4
BeginPrivate: 0
EndPrivate
BeginChars: 256 31

StartChar: o
Encoding: 111 111 0
Width: 414
VWidth: 971
Flags: HW
LayerCount: 2
Fore
SplineSet
277 204 m 4
 277 293 235 368 187 368 c 4
 139 368 96 293 96 204 c 4
 96 115 139 34 187 34 c 4
 235 34 277 115 277 204 c 4
0 210 m 4
 0 326 66 416 190 416 c 4
 314 416 381 326 381 210 c 4
 381 94 314 -5 190 -5 c 4
 66 -5 0 94 0 210 c 4
EndSplineSet
EndChar

StartChar: n
Encoding: 110 110 1
Width: 499
VWidth: 971
Flags: HW
LayerCount: 2
Fore
SplineSet
0 0 m 29
 0 38 l 29
 0 38 61 46 61 90 c 4
 61 134 61 312 61 312 c 25
 0 312 l 25
 0 350 l 17
 42 354 72 378 109 408 c 9
 149 379 l 25
 149 323 l 1
 149 323 204 398 272 398 c 0
 345 398 410 365 410 286 c 0
 410 207 411 105 411 76 c 0
 411 47 466 44 466 44 c 25
 466 0 l 25
 265 0 l 1
 265 47 l 25
 265 47 325 50 325 89 c 0
 325 106 325 196 325 254 c 0
 325 312 292 339 263 339 c 0
 186 339 146 248 146 248 c 25
 146 248 146 122 146 90 c 4
 146 58 196 47 196 47 c 29
 195 0 l 29
 0 0 l 29
EndSplineSet
EndChar

StartChar: i
Encoding: 105 105 2
Width: 217
VWidth: 971
Flags: HW
LayerCount: 2
Fore
SplineSet
47 474 m 29
 99 432 l 29
 161 465 l 29
 161 525 l 29
 112 560 l 29
 112 560 59 546 56 546 c 4
 53 546 50 502 47 474 c 29
149 379 m 17
 149 379 l 1
 109 408 l 17
 72 378 42 354 0 350 c 9
 0 312 l 25
 61 312 l 25
 61 312 61 134 61 90 c 0
 61 46 0 38 0 38 c 25
 0 0 l 25
 195 0 l 25
 196 47 l 25
 196 47 146 58 146 90 c 0
 146 122 149 379 149 379 c 17
EndSplineSet
EndChar

StartChar: l
Encoding: 108 108 3
Width: 229
VWidth: 971
Flags: HW
LayerCount: 2
Fore
SplineSet
149 609 m 17
 149 609 l 1
 109 638 l 17
 72 608 42 583 0 579 c 9
 0 542 l 25
 61 542 l 25
 61 542 61 134 61 90 c 0
 61 46 0 38 0 38 c 25
 0 0 l 25
 195 0 l 25
 196 47 l 25
 196 47 146 58 146 90 c 0
 146 122 149 609 149 609 c 17
EndSplineSet
EndChar

StartChar: e
Encoding: 101 101 4
Width: 389
VWidth: 971
Flags: HW
LayerCount: 2
Fore
SplineSet
332 255 m 5
 99 192 l 5
 99 103 140 34 188 34 c 0
 203 34 236 50 249 64 c 1
 249 133 l 0
 307 152 l 25
 356 117 l 25
 356 33 266 -5 191 -5 c 0
 67 -5 0 94 0 210 c 0
 0 326 67 416 191 416 c 0
 272 416 325 377 355 293 c 5
 332 255 l 5
332 255 m 1029
266 282 m 5
 250 333 220 368 187 368 c 0
 142 368 101 318 97 235 c 5
 266 282 l 5
EndSplineSet
EndChar

StartChar: m
Encoding: 109 109 5
Width: 713
VWidth: 971
Flags: HW
LayerCount: 2
Fore
SplineSet
383 323 m 5
 404 356 440 398 486 398 c 0
 568 398 624 365 624 286 c 0
 624 207 625 105 625 76 c 0
 625 47 680 44 680 44 c 25
 680 0 l 25
 479 0 l 1
 479 47 l 25
 479 47 539 50 539 89 c 0
 539 106 539 196 539 254 c 0
 539 312 507 340 478 339 c 0
 427 337 397 284 383 256 c 1
 383 183 383 102 383 76 c 0
 383 47 438 44 438 44 c 25
 438 0 l 25
 237 0 l 1
 237 47 l 25
 237 47 297 50 297 89 c 0
 297 106 297 196 297 254 c 0
 297 312 264 339 235 339 c 0
 158 339 146 248 146 248 c 25
 146 248 146 122 146 90 c 0
 146 58 196 47 196 47 c 25
 195 0 l 25
 0 0 l 25
 0 38 l 25
 0 38 61 46 61 90 c 0
 61 134 61 312 61 312 c 25
 0 312 l 25
 0 350 l 17
 42 354 72 378 109 408 c 9
 149 379 l 25
 149 323 l 5
 149 323 176 398 244 398 c 0
 307 398 369 381 383 323 c 5
EndSplineSet
EndChar

StartChar: a
Encoding: 97 97 6
Width: 439
VWidth: 971
Flags: HW
LayerCount: 2
Fore
SplineSet
144 -5 m 0
 84 -5 3 37 3 127 c 0
 3 159 38 200 38 200 c 1
 269 262 l 1
 269 300 l 0
 269 351 245 368 200 368 c 4
 167 368 92 350 104 290 c 5
 73 274 l 5
 0 302 l 5
 24 382 116 416 197 416 c 4
 321 416 357 354 357 297 c 0
 357 296 357 297 357 297 c 0
 357 253 357 82 357 82 c 1
 357 41 418 38 418 38 c 9
 418 0 l 1
 268 0 l 1
 268 11 267 49 267 46 c 1
 267 46 212 -5 144 -5 c 0
153 54 m 0
 230 54 270 110 270 110 c 1
 270 110 270 186 270 218 c 1
 94 171 l 1
 94 120 l 0
 94 60 135 54 153 54 c 0
EndSplineSet
EndChar

StartChar: u
Encoding: 117 117 7
Width: 499
VWidth: 971
Flags: HW
LayerCount: 2
Fore
SplineSet
407 379 m 0
 371 406 l 1
 334 376 304 354 262 350 c 9
 262 312 l 1
 321 312 l 17
 321 280 321 110 321 110 c 5
 321 110 280 54 203 54 c 4
 174 54 145 82 145 140 c 0
 145 242 145 311 145 379 c 1
 109 406 l 17
 72 376 42 354 0 350 c 9
 0 312 l 1
 55 312 l 17
 55 283 56 187 56 108 c 0
 56 29 121 -5 194 -5 c 4
 262 -5 318 46 318 46 c 5
 318 49 319 11 319 0 c 5
 466 0 l 1
 466 38 l 17
 466 38 405 41 405 82 c 1
 405 82 407 335 407 379 c 0
EndSplineSet
EndChar

StartChar: c
Encoding: 99 99 8
Width: 418
VWidth: 971
Flags: HW
LayerCount: 2
Fore
SplineSet
287 274 m 5
 255 290 l 5
 267 350 220 368 187 368 c 4
 142 368 98 324 98 212 c 1
 98 123 139 34 187 34 c 0
 202 34 236 50 249 64 c 1
 249 133 l 0
 307 152 l 25
 354 117 l 25
 354 33 265 -5 190 -5 c 0
 66 -5 0 94 0 210 c 0
 0 326 66 416 190 416 c 4
 271 416 335 382 359 302 c 5
 287 274 l 5
EndSplineSet
EndChar

StartChar: s
Encoding: 115 115 9
Width: 389
VWidth: 971
Flags: HW
LayerCount: 2
Fore
SplineSet
0 297 m 4
 0 297 0 296 0 297 c 4
 0 354 65 416 189 416 c 4
 270 416 333 382 357 302 c 1
 285 274 l 1
 254 290 l 1
 266 350 220 368 187 368 c 4
 142 368 96 351 96 300 c 4
 96 266 108 237 173 238 c 4
 238 239 354 220 354 127 c 4
 354 37 283 -5 164 -5 c 4
 89 -5 0 33 0 117 c 29
 48 152 l 29
 106 133 l 4
 106 64 l 5
 119 50 152 34 167 34 c 4
 213 34 257 61 257 121 c 4
 257 171 224 190 165 190 c 4
 23 190 0 256 0 297 c 4
EndSplineSet
EndChar

StartChar: r
Encoding: 114 114 10
Width: 392
VWidth: 971
Flags: HW
LayerCount: 2
Fore
SplineSet
245 398 m 0
 177 398 149 323 149 323 c 1
 149 379 l 25
 109 408 l 17
 72 378 42 354 0 350 c 9
 0 312 l 25
 61 312 l 25
 61 312 61 134 61 90 c 0
 61 46 0 38 0 38 c 25
 0 0 l 25
 195 0 l 25
 196 47 l 25
 196 47 146 58 146 90 c 0
 146 122 146 248 146 248 c 5
 146 248 157 340 219 340 c 4
 236 340 268 334 255 290 c 1
 287 274 l 1
 316 289 334 292 359 302 c 1
 335 382 293 398 245 398 c 0
EndSplineSet
EndChar

StartChar: p
Encoding: 112 112 12
Width: 472
VWidth: 971
Flags: HW
LayerCount: 2
Fore
SplineSet
146 -129 m 5
 146 -161 196 -173 196 -173 c 5
 195 -220 l 29
 0 -220 l 29
 0 -182 l 5
 0 -182 61 -173 61 -129 c 4
 61 -85 61 312 61 312 c 1
 0 312 l 1
 0 350 l 17
 42 354 72 378 109 408 c 9
 149 379 l 25
 149 323 l 1
 149 323 204 398 272 398 c 0
 391 398 439 307 439 191 c 0
 439 85 373 -5 249 -5 c 0
 208 -5 175 5 147 22 c 1
 146 -129 l 5
147 88 m 1
 147 88 197 43 245 43 c 0
 293 43 343 109 343 197 c 0
 343 286 307 339 263 339 c 0
 186 339 146 248 146 248 c 1
 147 88 l 1
EndSplineSet
EndChar

StartChar: w
Encoding: 119 119 13
Width: 687
VWidth: 1000
Flags: HW
LayerCount: 2
Fore
SplineSet
311 275 m 0
 244.400390625 5 l 1
 166.200195312 -5 l 17
 166.200195312 -5 59.7998046875 297.62109375 49 326 c 0
 38.1572265625 354.4921875 0 370 0 370 c 9
 0 414 l 25
 65 414 166 414 166 414 c 0
 166 414 166 387 166 370 c 17
 166 370 128 356 137 326 c 0
 146 296 217 89 217 89 c 1
 296.200195312 411 l 0
 350.400390625 411 l 0
 433 89 l 1
 433 89 498.471679688 284.377929688 510 324 c 0
 518.926757812 354.680664062 474 363 474 363 c 9
 474 414 l 25
 616 414 l 25
 616 363 l 17
 616 363 577 357 566 324 c 0
 554.029296875 288.087890625 460.400390625 7 460.400390625 7 c 1
 386.200195312 -3 l 1
 311 275 l 0
EndSplineSet
EndChar

StartChar: h
Encoding: 104 104 14
Width: 498
VWidth: 971
Flags: HW
LayerCount: 2
Fore
SplineSet
0 0 m 25
 0 38 l 25
 0 38 61 46 61 90 c 0
 61 134 61 542 61 542 c 25
 0 542 l 25
 0 579 l 17
 42 583 72 608 109 638 c 9
 149 609 l 25
 149 323 l 1
 149 323 204 398 272 398 c 0
 345 398 410 365 410 286 c 0
 410 207 411 105 411 76 c 0
 411 47 466 44 466 44 c 25
 466 0 l 25
 265 0 l 1
 265 47 l 25
 265 47 325 50 325 89 c 0
 325 106 325 196 325 254 c 0
 325 312 292 339 263 339 c 0
 186 339 146 248 146 248 c 25
 146 248 146 122 146 90 c 0
 146 58 196 47 196 47 c 25
 195 0 l 25
 0 0 l 25
EndSplineSet
EndChar

StartChar: exclam
Encoding: 33 33 15
Width: 161
VWidth: 971
Flags: HW
LayerCount: 2
Fore
SplineSet
112 408 m 1
 112 667 l 1
 112 667 94 675 72 681 c 1
 25 645 l 0
 24 645 25 408 25 408 c 1
 37 181 l 5
 68 160 l 29
 105 172 l 5
 112 408 l 1
9 35 m 25
 60 -7 l 25
 122 26 l 25
 122 86 l 25
 73 121 l 25
 73 121 20 107 17 107 c 0
 14 107 12 63 9 35 c 25
EndSplineSet
EndChar

StartChar: y
Encoding: 121 121 16
Width: 442
VWidth: 971
Flags: HW
LayerCount: 2
Fore
SplineSet
163 -197 m 9
 101 -229 l 1
 50 -187 l 25
 53 -159 58 -115 58 -115 c 0
 114 -101 l 1
 139 -120 l 1
 181 0 l 1
 181 0 58 289 48 317 c 0
 37 345 0 359 0 359 c 9
 0 402 l 25
 63 402 161 402 161 402 c 0
 161 402 161 376 161 359 c 17
 161 359 124 346 133 317 c 0
 142 288 223 86 223 86 c 1
 223 86 295 277 306 315 c 0
 315 345 271 353 271 353 c 9
 271 402 l 25
 409 402 l 25
 409 353 l 17
 409 353 371 347 360 315 c 0
 348 280 163 -197 163 -197 c 9
EndSplineSet
EndChar

StartChar: period
Encoding: 46 46 17
Width: 161
VWidth: 971
Flags: HW
LayerCount: 2
Fore
SplineSet
9 35 m 25
 60 -7 l 25
 122 26 l 25
 122 86 l 25
 73 121 l 25
 73 121 20 107 17 107 c 0
 14 107 12 63 9 35 c 25
EndSplineSet
EndChar

StartChar: d
Encoding: 100 100 18
Width: 471
VWidth: 971
Flags: HW
LayerCount: 2
Fore
SplineSet
292 389 m 1
 292 542 l 1
 235 542 l 1
 235 579 l 17
 277 583 307 606 344 636 c 1
 380 609 l 0
 380 565 378 82 378 82 c 1
 378 41 439 38 439 38 c 9
 439 0 l 1
 292 0 l 1
 292 46 l 1
 292 46 240 -5 172 -5 c 0
 53 -5 0 94 0 210 c 0
 0 326 66 416 190 416 c 0
 231 416 264 406 292 389 c 1
292 323 m 1
 292 323 242 368 194 368 c 0
 146 368 96 293 96 204 c 0
 96 115 136 45 184 45 c 0
 261 45 292 110 292 110 c 1
 292 323 l 1
EndSplineSet
EndChar

StartChar: v
Encoding: 118 118 19
Width: 409
VWidth: 971
Flags: HW
LayerCount: 2
Fore
SplineSet
238 5 m 1
 238 5 328 280 340 315 c 0
 351 347 389 353 389 353 c 9
 389 402 l 25
 251 402 l 25
 251 353 l 17
 251 353 295 345 286 315 c 0
 275 277 211 86 211 86 c 5
 211 86 142 288 133 317 c 0
 124 346 161 359 161 359 c 9
 161 376 161 402 161 402 c 0
 161 402 63 402 0 402 c 25
 0 359 l 17
 0 359 37 345 48 317 c 0
 58 289 161 -5 161 -5 c 9
 238 5 l 1
EndSplineSet
EndChar

StartChar: x
Encoding: 120 120 20
Width: 409
VWidth: 971
Flags: HW
LayerCount: 2
Fore
SplineSet
230 210 m 1
 230 210 282 268 337 329 c 4
 358.312983256 352.638035975 389 355 389 355 c 1
 389 402 l 25
 249 402 l 25
 249 355 l 17
 249 355 292.170895413 342.730465192 272 319 c 4
 238 279 202 240 202 240 c 1
 202 240 172 276 141 317 c 4
 122.766569539 341.115182223 161 359 161 359 c 9
 161 376 161 402 161 402 c 0
 161 402 63 402 0 402 c 25
 0 359 l 1
 0 359 24.237632029 358.190163284 41 337 c 0
 94 270 154 195 154 195 c 1
 154 195 83 113 42 71 c 4
 25.1770079234 53.7666910435 0 48 0 48 c 1
 0 0 l 25
 140 0 l 25
 140 48 l 17
 140 48 101.860193992 66.1195993034 113 79 c 4
 145 116 185 163 185 163 c 1
 185 163 221 121 251 82 c 0
 267 62 227 43 227 43 c 9
 227 26 227 0 227 0 c 0
 227 0 326 0 389 0 c 25
 389 43 l 17
 389 43 362 51 344 72 c 0
 332.917422258 84.9296740326 230 210 230 210 c 1
EndSplineSet
EndChar

StartChar: f
Encoding: 102 102 21
Width: 315
VWidth: 971
Flags: HW
LayerCount: 2
Fore
SplineSet
144 403 m 1
 144 403 144 491 144 511 c 0
 144 571 200 597 246 597 c 0
 246 597 l 1
 246 525 l 0
 300 510 l 25
 345 545 l 17
 345 629 282 637 246 637 c 0
 127 637 61 586 61 505 c 0
 61 493 61 488 61 403 c 1
 0 403 l 1
 0 353 l 1
 61 353 l 1
 61 214 61 90 61 90 c 1
 61 46 -1 38 -1 38 c 1
 -1 0 l 25
 194 0 l 25
 195 47 l 1
 195 47 144 58 144 90 c 1
 144 90 143 225 144 353 c 1
 273 353 l 1
 274 403 l 1
 144 403 l 1
EndSplineSet
EndChar

StartChar: j
Encoding: 106 106 22
Width: 187
VWidth: 971
Flags: HW
LayerCount: 2
Fore
SplineSet
46 474 m 29
 97 432 l 29
 159 465 l 29
 159 525 l 29
 111 560 l 29
 111 560 57 546 54 546 c 4
 51 546 49 502 46 474 c 29
150 -94 m 0
 150 -184 81 -226 -38 -226 c 0
 -74 -226 -136 -219 -136 -135 c 9
 -92 -99 l 25
 -38 -114 l 0
 -37 -186 l 1
 -37 -186 l 0
 9 -186 60 -160 60 -100 c 0
 60 -56 60 312 60 312 c 1
 0 312 l 25
 0 350 l 17
 42 354 70 378 107 408 c 13
 150 379 l 1
 150 379 l 1
 150 379 150 -62 150 -94 c 0
EndSplineSet
EndChar

StartChar: ae
Encoding: 230 230 23
Width: 649
VWidth: 971
Flags: HW
LayerCount: 2
Fore
SplineSet
333 369 m 1025
153 54 m 0
 230 54 270 110 270 110 c 1
 270 110 270 166 270 198 c 1
 94 152 l 1
 94 101 l 0
 94 59 135 54 153 54 c 0
301 72 m 1
 301 72 212 -5 144 -5 c 0
 84 -5 3 27 3 108 c 0
 3 140 38 180 38 180 c 1
 269 243 l 1
 269 300 l 0
 269 351 245 368 200 368 c 0
 160 368 92 341 104 281 c 1
 73 264 l 1
 0 292 l 1
 24 372 108 416 197 416 c 0
 267 416 305 401 328 374 c 1
 359 403 398 416 453 416 c 0
 534 416 590 379 617 313 c 1
 594 274 l 1
 361 212 l 1
 361 123 402 34 450 34 c 0
 465 34 498 50 511 64 c 1
 512 133 l 0
 569 152 l 25
 618 117 l 25
 618 33 528 -5 453 -5 c 0
 366 -5 329 29 301 72 c 1
280 113 m 1025
324 369 m 1025
594 274 m 1025
528 301 m 1
 513 349 482 368 449 368 c 0
 404 368 363 338 359 255 c 1
 528 301 l 1
EndSplineSet
EndChar

StartChar: k
Encoding: 107 107 24
Width: 466
VWidth: 971
Flags: HW
LayerCount: 2
Fore
SplineSet
0 48 m 1
 0 0 l 1049
178 179.799804688 m 1
 178 179.799804688 237 112 262 82 c 0
 278.396484375 62.32421875 238 43 238 43 c 1
 238 26 238 0 238 0 c 0
 238 0 337 0 400 0 c 25
 400 43 l 17
 400 43 372.438759842 52.3813951777 355 72 c 0
 339 90 234 219 234 219 c 1
 234 219 304.152835995 292.856900302 347 339 c 0
 360 353 400 355 400 355 c 1
 400 402 l 25
 260 402 l 25
 260 355 l 1
 260 355 293 349 272 326 c 0
 241.928710938 293.064453125 178 227 178 227 c 1
 144 227 l 1
 144.856445312 393.1875 144 658.19140625 144 658.19140625 c 1
 109 688 l 1
 72 658 42 633 0 629 c 1
 0 592 l 1
 61 592 l 1
 61 592 61 134 61 90 c 0
 61 46 0 38 0 38 c 1
 0 0 l 1
 195 0 l 1
 196 47 l 1
 196 47 144 58 144 90 c 0
 144 98.4030052695 143.6953125 120.819335938 144 180 c 1
 178 179.799804688 l 1
EndSplineSet
EndChar

StartChar: t
Encoding: 116 116 25
Width: 337
VWidth: 971
Flags: HW
LayerCount: 2
Fore
SplineSet
99 518 m 5
 85 443 44 410 0 401 c 5
 0 353 l 1
 61 353 l 1
 61 127 l 0
 61 37 112 -5 201 -5 c 0
 277.073242188 -5 304 23 304 23 c 1
 281.649414062 67.408203125 l 1
 265.196289062 55.421875 240.673828125 34 218 34 c 0
 182 34 147 61 147 121 c 0
 147 134.430367857 146.38671875 245.032226562 147 353 c 1
 283 353 l 1
 284 403 l 1
 147 403 l 5
 147 449 147 509 147 509 c 5
 99 518 l 5
EndSplineSet
EndChar

StartChar: g
Encoding: 103 103 26
Width: 490
VWidth: 971
Flags: HW
LayerCount: 2
Fore
SplineSet
74 127 m 1025
0 268.159179688 m 0
 0 345.778320312 66 416 190 416 c 0
 220.900474307 416 248.261286751 412.260273984 271.92768743 405.443526315 c 1
 328.559415085 452.181619159 405.946421378 475.396711786 471.116210938 445.3046875 c 1
 439.296875 373.887695312 l 1
 406.0625 363.280273438 l 1
 385.771601229 393.716621595 341.108398438 396.552734375 313.936523438 384.904296875 c 1
 356.495117188 358.938476562 381 318.951118433 381 278.159179688 c 0
 381 211.782608694 333 156 240.263634009 128.867066229 c 0
 189.807225584 114.104460713 110 92 110 92 c 1
 110 68 169.54296875 60.244140625 220 56 c 0
 327 47 401 12.7783203125 401 -74.8408203125 c 0
 401 -152.459960938 344 -225.704101562 190 -225.704101562 c 0
 46 -225.704101562 -20 -179.459960938 -20 -101.840820312 c 0
 -20 -37.6484375 58 1 113.70703125 16.9140625 c 1
 84.80859375 24.9951171875 52 40.501953125 51 89 c 1
 74 127 l 1
 109.740501734 136.814749181 l 1
 37.7329124397 161.567196478 0 209.469726562 0 268.159179688 c 0
277 274.14453125 m 0
 277 333.697265625 235 378.881835938 187 378.881835938 c 0
 139 378.881835938 96 333.697265625 96 274.14453125 c 0
 96 214.591796875 139 165.392578125 187 165.392578125 c 0
 235 165.392578125 277 214.591796875 277 274.14453125 c 0
351 -89.85546875 m 0
 351 -63.302734375 315.03515625 -35.6982421875 187 -21.1181640625 c 0
 138.321289062 -15.5751953125 39 -37.302734375 39 -84.85546875 c 0
 39 -120.408203125 100.403696778 -138.236026041 187 -146.607421875 c 0
 280.999988424 -155.694543175 351 -133.321289062 351 -89.85546875 c 0
EndSplineSet
EndChar

StartChar: b
Encoding: 98 98 27
Width: 471
VWidth: 971
Flags: HW
LayerCount: 2
Fore
SplineSet
59 62 m 0
 59 62 116 -5 245 -5 c 0
 388 -5 437 94 437 210 c 0
 437 326 371 416 247 416 c 0
 206 416 173 406 145 389 c 1
 145 389 145 596 145 609 c 0
 109 636 l 1
 72 606 42 583 0 579 c 9
 0 542 l 1
 57 542 l 1
 59 62 l 0
145 323 m 5
 145 323 195 368 243 368 c 0
 291 368 341 293 341 204 c 0
 341 115 301 45 253 45 c 0
 166 45 145 110 145 110 c 1
 145 323 l 5
EndSplineSet
EndChar

StartChar: q
Encoding: 113 113 28
Width: 471
VWidth: 971
Flags: HW
LayerCount: 2
Fore
SplineSet
377 -129 m 5
 377 -161 427 -173 427 -173 c 5
 426 -220 l 29
 231 -220 l 29
 231 -182 l 5
 231 -182 292 -173 292 -129 c 4
 292 -85 292 22 292 22 c 5
 264 5 231 -5 190 -5 c 4
 66 -5 0 85 0 201 c 4
 0 317 49 416 192 416 c 4
 321 416 378 349 378 349 c 4
 377 -129 l 5
292 88 m 5
 292 301 l 5
 292 301 271 366 184 366 c 4
 136 366 96 296 96 207 c 4
 96 118 146 43 194 43 c 4
 242 43 292 88 292 88 c 5
EndSplineSet
EndChar

StartChar: z
Encoding: 122 122 29
Width: 422
VWidth: 971
Flags: HW
LayerCount: 2
Fore
SplineSet
0 402 m 1
 0 402 326 402 389 402 c 1
 389 359 l 1
 389 359 180 127 138 82 c 0
 117.371844062 59.8984043527 139.751953125 40 158 40 c 0
 236.357421875 40 l 1
 277 40 314 82 328 157 c 1
 376 148 l 1
 386 0 l 1
 386 0 l 0
 386 0 63 0 0 0 c 1
 0 43 l 17
 0 43 210 271 248 317 c 0
 267.254489815 340.308066619 246.248287591 359 228 359 c 0
 150 359 l 1
 109.357421875 359 72.357421875 317 58.357421875 242 c 1
 10.357421875 251 l 1
 0 402 l 1
EndSplineSet
EndChar

StartChar: one
Encoding: 49 49 30
Width: 279
VWidth: 971
Flags: HW
LayerCount: 2
Fore
SplineSet
189 429 m 17
 189 429 l 1
 149 458 l 17
 112 408 82 363 0 359 c 9
 0 322 l 25
 101 322 l 25
 101 322 101 134 101 90 c 0
 101 46 40 38 40 38 c 25
 40 0 l 25
 235 0 l 25
 236 47 l 25
 236 47 186 58 186 90 c 0
 186 122 189 429 189 429 c 17
EndSplineSet
EndChar
